<svg width="488" height="617" viewBox="0 0 488 617" fill="none" xmlns="http://www.w3.org/2000/svg">
<path d="M410.531 250.167C410.531 250.167 405.488 282.888 400.371 317.483C396.416 344.222 392.294 375.531 390.421 390.7C390.321 391.541 390.221 392.329 390.138 393.061C390.035 393.922 389.937 394.71 389.854 395.42C389.826 395.637 389.804 395.849 389.781 396.052C389.642 397.224 389.511 398.408 389.383 399.597C386.325 427.751 385.306 460.895 385.267 491.959C385.265 494.574 385.267 497.172 385.276 499.753C385.301 506.231 385.365 512.591 385.459 518.765V518.768C385.496 521.321 385.54 523.839 385.587 526.317V526.32C385.674 530.764 385.771 535.089 385.885 539.274C385.902 539.923 385.916 540.575 385.935 541.218V541.221C386.113 547.698 386.311 553.811 386.517 559.458V559.461C386.528 559.754 386.539 560.043 386.55 560.333C386.653 563.248 386.762 566.036 386.876 568.679C386.932 570.038 386.984 571.358 387.037 572.636V572.639C387.14 575.031 387.243 586.997 387.341 597.442C377.422 599.974 367.429 602.263 357.377 604.298C297.78 616.373 236.129 619.681 175.691 613.708C174.1 602.781 172.48 570.163 170.855 563.065C170.855 563.062 170.855 563.062 170.855 563.059C167.162 547.016 163.391 530.995 159.536 514.994C159.534 514.991 159.534 514.989 159.534 514.986C159.534 514.986 159.536 514.986 159.534 514.98C158.203 509.447 156.859 503.916 155.504 498.389C155.078 496.64 154.647 494.894 154.218 493.145C154.221 493.142 154.218 493.142 154.218 493.142C150.347 477.403 146.398 461.686 142.365 445.988C138.748 431.894 135.063 417.815 131.314 403.755V403.752C131.306 403.713 131.292 403.671 131.281 403.635C130.855 402.025 130.424 400.418 129.99 398.806C129.99 398.806 129.992 398.806 129.99 398.803C128.971 395.005 127.95 391.204 126.923 387.405C119.84 361.204 112.532 335.063 104.993 308.984C101.027 295.241 96.995 281.521 92.904 267.811C92.9012 267.811 92.9012 267.809 92.9012 267.806C92.8985 267.803 92.8984 267.797 92.8984 267.795C91.9411 264.589 90.9866 261.395 90.0209 258.196V258.193C90.4021 258.034 90.8001 257.859 91.212 257.678C106.271 251.036 144.742 229.312 175.018 213.704C175.285 213.564 175.555 213.428 175.819 213.289C176.354 213.016 176.882 212.743 177.408 212.473C177.934 212.203 178.46 211.933 178.981 211.671C179.245 211.537 179.501 211.403 179.763 211.273C180.28 211.005 180.798 210.746 181.31 210.487C182.075 210.097 182.838 209.716 183.592 209.337C184.594 208.833 185.585 208.34 186.559 207.858C186.801 207.739 187.046 207.619 187.288 207.499C187.53 207.379 187.772 207.263 188.012 207.143C188.251 207.026 188.487 206.909 188.727 206.792C189.127 206.597 189.523 206.402 189.918 206.21C190.461 205.948 190.998 205.689 191.526 205.433C192.442 204.987 193.341 204.561 194.22 204.152C194.273 204.127 194.329 204.102 194.379 204.074C194.766 203.893 195.144 203.715 195.523 203.539C195.551 203.531 195.576 203.517 195.601 203.503C196.001 203.317 196.399 203.133 196.792 202.952C197.212 202.757 197.629 202.567 198.036 202.384C198.242 202.292 198.448 202.2 198.648 202.111C199.207 201.857 199.758 201.615 200.293 201.378C200.721 201.192 201.147 201.005 201.565 200.827C201.751 200.746 201.937 200.668 202.121 200.587C202.722 200.334 203.307 200.089 203.874 199.855C204.178 199.73 204.478 199.61 204.773 199.49C204.985 199.401 205.193 199.318 205.402 199.24H205.405V199.237H205.408C205.53 199.19 205.65 199.142 205.77 199.098C205.803 199.086 205.839 199.07 205.873 199.059C205.906 199.042 205.942 199.028 205.975 199.017C206.226 198.919 206.479 198.825 206.721 198.736C206.844 198.685 206.963 198.644 207.083 198.596C207.103 198.594 207.117 198.588 207.133 198.58C207.136 198.58 207.136 198.58 207.136 198.58C207.15 198.574 207.169 198.569 207.186 198.563C207.206 198.555 207.225 198.543 207.245 198.538C207.264 198.53 207.278 198.524 207.295 198.518C207.514 198.435 207.729 198.36 207.94 198.284C207.96 198.279 207.974 198.273 207.993 198.265C208.024 198.254 208.054 198.245 208.082 198.237C208.099 198.232 208.113 198.226 208.132 198.218C208.26 198.176 208.383 198.129 208.514 198.087C208.516 198.084 208.516 198.087 208.516 198.087C208.586 198.062 208.658 198.037 208.725 198.017C208.859 197.967 208.995 197.925 209.123 197.883C209.129 197.881 209.14 197.878 209.145 197.878C209.212 197.853 209.279 197.833 209.346 197.811C209.496 197.764 209.641 197.716 209.783 197.672C209.874 197.641 209.963 197.613 210.055 197.586C210.08 197.58 210.105 197.574 210.133 197.563C210.194 197.544 210.258 197.527 210.32 197.508C210.35 197.499 210.384 197.488 210.414 197.48H210.417C210.448 197.471 210.476 197.46 210.506 197.452C210.648 197.41 210.787 197.371 210.924 197.332C211.143 197.271 211.361 197.212 211.566 197.162C211.622 197.148 211.678 197.134 211.728 197.126C211.753 197.118 211.775 197.109 211.797 197.107C211.917 197.076 212.037 197.048 212.151 197.023C212.268 196.998 212.382 196.973 212.49 196.953C212.602 196.931 212.71 196.912 212.816 196.892C213.08 196.845 213.35 196.8 213.623 196.75C213.784 196.722 213.949 196.694 214.113 196.664C214.138 196.661 214.166 196.658 214.191 196.653C214.658 196.572 215.143 196.491 215.641 196.405C215.641 196.405 215.643 196.405 215.646 196.405C215.977 196.349 216.317 196.291 216.659 196.235C217.516 196.09 218.41 195.948 219.334 195.8C219.395 195.792 219.459 195.781 219.52 195.773C219.64 195.75 219.759 195.734 219.879 195.714C220.068 195.684 220.266 195.653 220.461 195.622C220.497 195.617 220.53 195.611 220.564 195.603C220.703 195.58 220.836 195.564 220.976 195.542C221.118 195.519 221.259 195.5 221.404 195.477C221.554 195.455 221.705 195.43 221.855 195.408C222.186 195.358 222.52 195.308 222.857 195.257C223.208 195.207 223.561 195.157 223.917 195.102C223.948 195.099 223.976 195.096 224.003 195.093C224.41 195.035 224.822 194.976 225.239 194.918C225.412 194.893 225.584 194.868 225.76 194.845C226.213 194.784 226.672 194.72 227.134 194.662C227.329 194.634 227.527 194.606 227.722 194.581C228.195 194.519 228.673 194.458 229.158 194.397C229.347 194.372 229.542 194.347 229.734 194.325C229.953 194.297 230.176 194.269 230.399 194.244C230.805 194.194 231.217 194.146 231.626 194.096C232.113 194.041 232.606 193.985 233.101 193.932C233.332 193.907 233.557 193.882 233.788 193.86C234.019 193.837 234.248 193.812 234.479 193.787C234.531 193.782 234.587 193.776 234.637 193.768C234.999 193.729 235.363 193.69 235.728 193.656C235.948 193.634 236.173 193.609 236.402 193.589C236.688 193.562 236.98 193.534 237.275 193.506C237.37 193.5 237.465 193.486 237.562 193.481C237.938 193.445 238.316 193.414 238.689 193.381C238.706 193.381 238.72 193.378 238.731 193.378C238.956 193.358 239.182 193.342 239.407 193.322C239.577 193.308 239.744 193.294 239.914 193.28C239.983 193.275 240.053 193.269 240.122 193.264C240.598 193.225 241.077 193.186 241.561 193.152C241.951 193.122 242.349 193.094 242.741 193.069C242.833 193.063 242.922 193.058 243.014 193.052C243.256 193.035 243.498 193.021 243.743 193.005H243.754C244.113 192.98 244.472 192.957 244.828 192.938C245.096 192.918 245.365 192.907 245.638 192.896C245.736 192.89 245.833 192.888 245.936 192.885C246.083 192.876 246.231 192.868 246.378 192.863C246.626 192.851 246.874 192.838 247.119 192.826H247.121L247.405 192.818C247.469 192.818 247.536 192.815 247.609 192.812C247.711 192.81 247.817 192.804 247.923 192.801C248.193 192.793 248.46 192.787 248.73 192.776C248.972 192.768 249.212 192.757 249.454 192.751C249.604 192.748 249.754 192.743 249.904 192.734C249.941 192.732 249.974 192.732 250.013 192.732C250.127 192.726 250.238 192.723 250.355 192.721C250.506 192.715 250.661 192.715 250.817 192.712C251.151 192.701 251.491 192.695 251.83 192.693C251.836 192.695 251.847 192.695 251.853 192.693C251.933 192.693 252.011 192.693 252.089 192.69C252.303 192.687 252.518 192.687 252.735 192.684C252.924 192.679 253.116 192.679 253.308 192.679C253.887 192.676 254.466 192.676 255.042 192.679C255.131 192.679 255.217 192.679 255.298 192.682C255.49 192.682 255.679 192.687 255.866 192.687C256.08 192.69 256.291 192.693 256.503 192.698H256.52C256.92 192.704 257.318 192.709 257.716 192.721C257.722 192.721 257.727 192.726 257.738 192.726C257.741 192.726 257.741 192.726 257.741 192.726C257.794 192.729 257.841 192.729 257.897 192.729C258.242 192.737 258.59 192.751 258.932 192.76C258.935 192.76 258.935 192.76 258.938 192.762C258.941 192.762 258.943 192.762 258.943 192.762C258.946 192.76 258.949 192.762 258.952 192.765C258.991 192.765 259.033 192.765 259.071 192.768H259.105C259.361 192.776 259.617 192.787 259.87 192.799C259.898 192.799 259.923 192.801 259.948 192.801C260.015 192.804 260.079 192.807 260.148 192.81C260.151 192.81 260.151 192.81 260.151 192.81C260.157 192.81 260.16 192.81 260.171 192.812C260.257 192.815 260.346 192.821 260.432 192.824C260.502 192.826 260.577 192.829 260.647 192.832C260.805 192.84 260.967 192.846 261.125 192.857C261.192 192.863 261.264 192.865 261.334 192.868C261.345 192.868 261.362 192.868 261.381 192.871C261.42 192.871 261.465 192.874 261.507 192.876C261.713 192.888 261.921 192.904 262.133 192.913C262.202 192.918 262.277 192.924 262.35 192.927C262.386 192.929 262.419 192.929 262.453 192.932C262.483 192.935 262.514 192.938 262.545 192.941H262.581C262.803 192.957 263.026 192.971 263.246 192.991C263.288 192.991 263.332 192.993 263.374 192.999C263.416 193.002 263.46 193.005 263.502 193.007C263.588 193.013 263.677 193.019 263.764 193.027C263.769 193.03 263.775 193.03 263.783 193.03C263.864 193.035 263.942 193.041 264.022 193.049C264.315 193.074 264.604 193.099 264.893 193.122C264.949 193.127 265.008 193.13 265.066 193.138C265.119 193.144 265.166 193.147 265.216 193.152C265.233 193.152 265.247 193.155 265.264 193.155H265.289C265.308 193.158 265.328 193.161 265.35 193.163C265.361 193.163 265.372 193.163 265.383 193.166C265.556 193.183 265.723 193.197 265.893 193.216C265.934 193.219 265.982 193.225 266.023 193.227C266.062 193.233 266.104 193.236 266.146 193.239C266.226 193.247 266.304 193.258 266.385 193.266C266.41 193.266 266.432 193.269 266.455 193.272C266.747 193.303 267.034 193.333 267.317 193.367C267.337 193.369 267.351 193.369 267.367 193.372C267.451 193.381 267.529 193.392 267.612 193.4C267.816 193.425 268.016 193.45 268.219 193.478C268.222 193.475 268.225 193.478 268.225 193.478C268.314 193.486 268.4 193.5 268.486 193.509C268.489 193.509 268.495 193.509 268.497 193.511C268.77 193.548 269.043 193.581 269.313 193.623C269.396 193.631 269.477 193.645 269.56 193.656C269.588 193.659 269.616 193.662 269.644 193.667C270.031 193.723 270.409 193.779 270.793 193.84C270.796 193.837 270.799 193.84 270.802 193.84C270.855 193.846 270.902 193.857 270.955 193.865C271.108 193.887 271.258 193.915 271.411 193.937C271.492 193.954 271.57 193.965 271.65 193.979C271.742 193.99 271.837 194.01 271.929 194.027C271.945 194.027 271.959 194.029 271.971 194.032C272.277 194.088 272.583 194.144 272.886 194.196C272.942 194.205 272.997 194.219 273.05 194.227C273.142 194.247 273.237 194.263 273.329 194.283C273.935 194.397 274.536 194.522 275.126 194.653C275.238 194.678 275.343 194.703 275.455 194.731C275.471 194.734 275.488 194.734 275.508 194.739C275.516 194.739 275.527 194.742 275.533 194.742C275.558 194.745 275.586 194.751 275.611 194.762C275.636 194.765 275.663 194.77 275.689 194.776C275.736 194.784 275.78 194.798 275.828 194.809C275.864 194.815 275.897 194.826 275.931 194.837C276.073 194.868 276.212 194.898 276.354 194.934C276.437 194.957 276.518 194.976 276.601 194.998C276.612 194.998 276.626 195.001 276.635 195.004C276.651 195.004 276.663 195.007 276.674 195.01C276.699 195.015 276.724 195.026 276.746 195.032C276.774 195.037 276.802 195.043 276.83 195.051C276.846 195.057 276.863 195.06 276.88 195.065C277.024 195.099 277.166 195.135 277.311 195.174C277.442 195.21 277.575 195.244 277.706 195.283C277.728 195.288 277.748 195.291 277.767 195.296C277.773 195.296 277.779 195.296 277.787 195.299C277.815 195.302 277.84 195.308 277.868 195.322C278.062 195.374 278.26 195.43 278.452 195.483C278.541 195.511 278.633 195.536 278.719 195.564C278.747 195.569 278.775 195.575 278.803 195.586C278.819 195.589 278.833 195.592 278.844 195.594C278.886 195.603 278.928 195.617 278.97 195.631C279.02 195.642 279.07 195.656 279.12 195.672C279.139 195.678 279.156 195.684 279.176 195.692C279.181 195.692 279.184 195.692 279.192 195.697C279.434 195.767 279.679 195.845 279.919 195.92C279.941 195.926 279.966 195.931 279.985 195.94C280.063 195.962 280.138 195.987 280.214 196.009C280.478 196.096 280.734 196.179 280.993 196.266C281.048 196.279 281.104 196.299 281.154 196.321C281.494 196.438 281.825 196.558 282.162 196.678V196.68C282.162 196.68 282.164 196.675 282.164 196.68C282.468 196.795 282.771 196.906 283.069 197.026C283.322 197.12 283.573 197.221 283.82 197.324C284.015 197.402 284.21 197.482 284.399 197.569C284.544 197.633 284.683 197.697 284.828 197.758C285.148 197.897 285.462 198.042 285.774 198.195C285.98 198.293 286.189 198.396 286.392 198.499C286.464 198.535 286.539 198.571 286.612 198.61C286.806 198.708 287.004 198.814 287.196 198.917C287.341 198.997 287.488 199.073 287.63 199.153C287.775 199.237 287.922 199.315 288.062 199.398C288.073 199.404 288.084 199.41 288.095 199.418C288.103 199.426 288.117 199.432 288.128 199.437C288.256 199.515 288.39 199.591 288.518 199.669C288.649 199.749 288.78 199.824 288.908 199.905C289.061 200 289.216 200.095 289.381 200.189C289.478 200.248 289.581 200.309 289.681 200.37C289.829 200.459 289.982 200.548 290.138 200.64C290.177 200.663 290.221 200.688 290.26 200.71C290.26 200.71 290.263 200.71 290.263 200.713C290.293 200.724 290.321 200.743 290.352 200.763C290.41 200.796 290.469 200.827 290.527 200.858C290.569 200.885 290.614 200.911 290.655 200.93C290.672 200.936 290.686 200.947 290.703 200.955C290.75 200.983 290.794 201.011 290.842 201.036C290.889 201.064 290.934 201.089 290.981 201.114C291.259 201.273 291.549 201.434 291.849 201.593C292.041 201.696 292.239 201.804 292.439 201.907C292.584 201.985 292.726 202.061 292.873 202.139C292.932 202.172 292.99 202.2 293.049 202.23C293.096 202.256 293.143 202.281 293.191 202.303C293.216 202.314 293.243 202.331 293.268 202.342C293.321 202.37 293.369 202.395 293.422 202.423C293.43 202.428 293.444 202.431 293.452 202.437L293.455 202.439C293.466 202.445 293.483 202.45 293.497 202.462C293.792 202.618 294.095 202.771 294.401 202.927C294.473 202.963 294.549 202.996 294.621 203.038C295.08 203.272 295.553 203.506 296.04 203.745C296.118 203.782 296.193 203.818 296.274 203.86C296.427 203.94 296.583 204.016 296.742 204.093C298.745 205.074 300.977 206.124 303.393 207.229C303.885 207.455 304.389 207.686 304.901 207.917C304.918 207.923 304.932 207.928 304.949 207.939C305.461 208.17 305.981 208.404 306.51 208.641C307.334 209.009 308.177 209.382 309.031 209.763C309.588 210.011 310.155 210.259 310.726 210.51C310.732 210.512 310.737 210.515 310.743 210.515C311.611 210.897 312.49 211.278 313.384 211.665C313.982 211.921 314.586 212.183 315.195 212.448C315.71 212.671 316.233 212.893 316.762 213.119C317.163 213.292 317.569 213.461 317.973 213.634C318.176 213.72 318.379 213.807 318.585 213.89C319.323 214.202 320.068 214.522 320.823 214.84C324.026 216.193 327.346 217.574 330.741 218.97C331.08 219.112 331.42 219.251 331.762 219.39C332.405 219.655 333.045 219.916 333.694 220.181C333.694 220.181 333.694 220.181 333.696 220.181C333.735 220.2 333.777 220.214 333.819 220.234C334.428 220.482 335.041 220.732 335.653 220.983C336.076 221.158 336.502 221.328 336.925 221.501C337.966 221.924 339.012 222.348 340.058 222.771C372.672 235.971 408.269 249.304 410.442 250.117C410.456 250.123 410.473 250.125 410.489 250.134C410.509 250.142 410.526 250.15 410.545 250.153C410.528 250.167 410.528 250.167 410.531 250.167Z" fill="#383860"/>
<path d="M482.699 481.391C482.387 482.29 482.117 482.892 481.622 484.117C476.084 497.854 455.531 523.697 389.094 567.222C388.359 567.704 387.619 568.183 386.876 568.673C386.164 569.135 385.446 569.603 384.722 570.068C382.326 571.619 378.931 573.803 374.578 576.192C374.183 576.412 373.779 576.629 373.368 576.849C370.217 578.537 366.605 580.313 362.539 582.026C360.919 582.708 359.341 583.338 357.802 583.917H357.8C353.519 585.521 349.57 586.74 346.058 587.673C343.818 587.815 341.581 587.941 339.349 588.052C339.955 586.454 340.562 584.819 341.163 583.154C341.745 581.564 342.318 579.94 342.886 578.289C344.391 573.939 345.875 569.383 347.3 564.627C347.539 563.841 347.773 563.053 348.004 562.26C348.224 561.511 348.441 560.759 348.658 560.004C349.662 556.49 350.586 553.048 351.441 549.692C351.986 547.526 352.504 545.398 352.991 543.304C353.993 539.015 354.869 534.877 355.643 530.906C355.69 530.675 355.737 530.441 355.779 530.207C355.79 530.193 355.804 530.179 355.815 530.163C360.393 524.816 364.966 519.959 369.494 515.365C374.856 509.92 380.144 504.844 385.276 499.748C396.58 488.522 407.116 477.202 415.98 461.672L415.988 461.658C416.99 459.898 417.973 458.085 418.933 456.211L418.73 455.824L389.386 399.594L387.207 395.42L385.974 393.064L384.741 390.702L355.996 335.62L371.531 252.86L387.736 244.809C388.17 244.82 388.66 244.837 389.205 244.871C389.205 244.871 391.245 244.993 393.508 245.38C395.545 245.728 401.951 247.36 410.47 250.145C410.487 250.153 410.506 250.159 410.523 250.164C410.526 250.167 410.526 250.167 410.531 250.167C428.554 281.905 442.196 309.808 452.108 331.538C492.926 421.017 492.063 454.493 482.699 481.391Z" fill="#383860"/>
<path d="M90.0176 258.185C68.6751 313.777 49.6369 358.141 35.9031 388.982C7.69502 452.321 -9.63444 486.264 5.74974 516.27C16.0188 536.298 37.7815 548.403 39.9077 549.556C57.8355 559.286 74.9897 560.079 92.9202 560.909C108.355 561.625 121.254 560.308 130.351 558.904C136.952 536.053 143.553 513.201 150.154 490.349C134.194 486.96 118.234 483.571 102.271 480.179C114.135 448.865 125.998 417.55 137.862 386.239L107.887 270.298L90.0176 258.185Z" fill="#383860"/>
<path d="M388.306 380.265C388.245 380.265 388.181 380.262 388.119 380.254C387.337 380.156 386.786 379.471 386.887 378.722C387.376 375.147 387.822 368.914 388.387 361.025C390.429 332.431 393.847 284.575 406.248 253.823C406.531 253.119 407.358 252.771 408.095 253.041C408.833 253.311 409.2 254.102 408.916 254.806C396.671 285.174 393.271 332.771 391.242 361.212C390.674 369.148 390.226 375.417 389.725 379.076C389.625 379.767 389.01 380.265 388.306 380.265Z" fill="#383860"/>
<path d="M131.736 403.595C131.09 403.595 130.541 403.095 130.482 402.43C127.355 367.903 101.848 284.285 90.1337 260.451C89.8229 259.816 90.0742 259.047 90.6984 258.731C91.3227 258.415 92.0793 258.67 92.3901 259.305C104.18 283.287 129.849 367.441 132.995 402.196C133.06 402.903 132.549 403.527 131.855 403.593C131.814 403.595 131.773 403.595 131.736 403.595Z" fill="#383860"/>
<path d="M437.905 460.224C437.262 460.224 436.703 459.745 436.62 459.09C436.528 458.378 437.032 457.726 437.741 457.637C447.156 456.425 456.738 456.036 466.214 456.473C466.932 456.506 467.485 457.113 467.452 457.832C467.419 458.55 466.817 459.096 466.094 459.071C456.765 458.637 447.337 459.021 438.072 460.216C438.017 460.221 437.961 460.224 437.905 460.224Z" fill="#383860"/>
<path d="M453.468 470.029C453.278 470.029 453.089 469.987 452.908 469.901L439.65 463.554C439.002 463.245 438.729 462.468 439.038 461.819C439.347 461.17 440.123 460.897 440.772 461.207L454.03 467.553C454.678 467.862 454.951 468.639 454.642 469.288C454.419 469.756 453.952 470.029 453.468 470.029Z" fill="#383860"/>
<path d="M99.4213 480.48C99.2182 480.569 98.99 480.605 98.7534 480.578C79.3868 478.244 59.1909 479.678 40.3475 484.727C39.6546 484.913 38.9421 484.501 38.7557 483.808C38.5692 483.115 38.9839 482.396 39.6741 482.215C58.8347 477.083 79.3701 475.624 99.0623 477.996C99.7747 478.082 100.284 478.729 100.198 479.441C100.142 479.918 99.8332 480.302 99.4213 480.48Z" fill="#383860"/>
<path d="M92.9566 475.209C92.6866 475.326 92.3777 475.351 92.0772 475.261C84.5493 473.045 76.4731 472.502 68.717 473.691C68.0074 473.799 67.345 473.312 67.2365 472.602C67.128 471.892 67.6122 471.229 68.3246 471.121C76.4537 469.873 84.9222 470.444 92.8119 472.766C93.4993 472.97 93.8944 473.691 93.6913 474.381C93.5744 474.766 93.2989 475.061 92.9566 475.209Z" fill="#383860"/>
<path d="M330.404 288.755L350.001 314.138C350.001 314.138 311.958 479.686 279.676 478.533C247.394 477.381 190.034 349.903 190.034 349.903L205.307 299.137L177.636 294.523L175.012 213.692C192.149 204.854 206.66 197.967 212.802 196.895C230.098 193.868 269.293 187.814 288.896 199.922C296.719 204.762 317.677 213.743 340.036 222.785L349.999 279.527L330.404 288.755Z" fill="#4F4F83"/>
<path d="M305.483 285.305C302.795 350.14 287.163 438.154 287.163 438.154L276.067 448.542L205.403 199.228C208.494 198.02 211.002 197.212 212.808 196.9C230.101 193.871 269.299 187.814 288.905 199.916C290.113 200.671 291.646 201.529 293.439 202.45C294.997 205.792 296.478 209.393 297.83 213.255C300.727 221.445 303.065 230.807 304.456 241.454C306.001 253.219 306.171 268.482 305.483 285.305Z" fill="#2E294E"/>
<path d="M284.204 275.692V296.742C284.204 304.459 278.412 310.942 270.751 311.808C263.955 312.576 257.49 308.694 254.966 302.337L245.779 279.179L262.51 252.955L284.204 275.692Z" fill="#4F4F83"/>
<path d="M165.435 453.861L158.426 462.714L220.228 511.711L227.237 502.858L165.435 453.861Z" fill="white"/>
<path d="M305.483 285.305L304.456 296.929L262.517 252.946L295.425 215.934L297.83 213.255C300.727 221.445 303.065 230.808 304.456 241.454C306.001 253.219 306.17 268.482 305.483 285.305Z" fill="#2E294E"/>
<path d="M261.397 305.64L250.277 561.023L314.262 551.216L278.521 303.754L261.397 305.64Z" fill="#4F4F83"/>
<path d="M142.025 553.805C135.032 560.105 131.169 559.238 130.354 558.904C127.215 557.629 125.138 554.571 123.992 550.422C119.311 533.46 125.038 512.572 136.885 498.673C144.778 489.414 149.211 490.143 150.157 490.352C151.265 490.597 153.683 491.469 156.107 496.014C164.105 511.015 157.988 539.431 142.025 553.805Z" fill="#3D3638"/>
<path d="M144.332 500.923C141.794 500.383 139.294 499.634 136.882 498.673C126.178 512.076 120.259 536.991 123.988 550.422C129.977 551.703 136.038 552.63 142.022 553.805C143.469 554.087 144.91 554.388 146.346 554.708C140.536 537.364 138.535 518.038 144.332 500.923Z" fill="#E07B57"/>
<path d="M249.609 514.284C246.695 508.72 238.728 505.885 233.279 503.568C227.137 500.964 220.764 498.971 214.369 497.091C202.533 493.618 190.346 488.291 177.912 487.375C174.052 487.094 168.745 486.804 165.494 489.11C163.19 490.742 161.014 493 158.863 495.158C157.875 496.158 156.887 497.135 155.904 498.015C154.346 499.41 152.698 500.845 150.672 501.343C149.17 501.716 147.597 501.53 146.072 501.271C145.49 501.17 144.912 501.045 144.333 500.923C138.536 518.038 140.54 537.364 146.35 554.707C151.524 555.857 156.608 557.303 161.498 559.447C170.359 563.326 179.718 566.055 189.269 567.564C199.232 569.141 207.698 568.219 217.6 566.74C222.662 565.988 227.596 566.679 230.774 561.872C231.729 560.422 232.288 558.545 231.642 556.93C231.039 555.403 229.48 554.42 227.883 554.078C226.55 553.786 225.929 553.348 224.83 553.32C227.064 553.217 229.316 553.056 231.439 552.365C233.794 551.597 236.023 550.073 237.078 547.823C238.132 545.582 237.726 542.571 235.75 541.068C233.905 539.667 230.76 540.435 229.23 538.689C232.533 538.397 235.959 538.063 238.792 536.339C241.619 534.615 243.623 531.059 242.482 527.951C241.5 525.275 238.898 522.067 236.126 521.421C239.897 522.087 243.871 521.558 247.336 519.926C248.301 519.469 249.272 518.887 249.779 517.954C250.394 516.837 250.202 515.414 249.609 514.284Z" fill="#FFA383"/>
<path d="M236.131 522.725C235.998 522.725 235.861 522.703 235.728 522.661C219.559 517.356 202.463 514.989 187.869 513.371C187.157 513.293 186.642 512.65 186.72 511.937C186.8 511.224 187.457 510.714 188.153 510.787C202.878 512.419 220.14 514.811 236.535 520.191C237.216 520.414 237.587 521.149 237.364 521.831C237.186 522.377 236.677 522.725 236.131 522.725Z" fill="#CC704F"/>
<path d="M229.235 539.99C229.182 539.99 229.129 539.987 229.073 539.982C222.136 539.127 214.994 538.375 208.087 537.651C201.169 536.924 194.017 536.172 187.056 535.315C186.344 535.225 185.837 534.577 185.927 533.867C186.016 533.154 186.672 532.655 187.374 532.736C194.312 533.591 201.453 534.343 208.357 535.067C215.276 535.794 222.431 536.545 229.391 537.403C230.103 537.492 230.61 538.141 230.521 538.851C230.44 539.508 229.881 539.99 229.235 539.99Z" fill="#CC704F"/>
<path d="M217.171 554.794C205.63 554.794 194.045 554.047 182.624 552.566C181.911 552.474 181.41 551.822 181.502 551.11C181.594 550.397 182.253 549.89 182.958 549.987C196.9 551.797 211.09 552.496 225.139 552.073C225.848 552.037 226.455 552.616 226.477 553.335C226.5 554.053 225.935 554.652 225.219 554.674C222.542 554.755 219.857 554.794 217.171 554.794Z" fill="#CC704F"/>
<path d="M205.398 199.231L262.51 252.952L233.514 298.41L205.398 199.231Z" fill="#2E294E"/>
<path d="M235.604 298.317C235.379 298.317 235.151 298.254 234.946 298.126C234.377 297.761 234.209 297.005 234.574 296.433L261.892 253.607C262.094 253.29 262.432 253.085 262.804 253.049C263.179 253.009 263.549 253.151 263.809 253.421L304.661 296.247C305.128 296.735 305.11 297.512 304.622 297.979C304.132 298.446 303.358 298.427 302.892 297.939L263.116 256.242L236.637 297.753C236.404 298.118 236.011 298.317 235.604 298.317Z" fill="#383860"/>
<path d="M212.92 198.702C215.862 190.565 218.7 180.876 220.71 169.81C223.648 153.633 223.943 139.328 223.331 127.991C233.18 119.292 243.981 110.642 246.33 112.658C247.507 113.669 245.689 116.627 245.291 120.38C243.997 132.511 258.627 142.489 265.226 148.816C273.82 157.058 282.483 172.238 282.221 202.723C274.752 219.228 267.282 235.733 259.813 252.238C244.181 234.394 228.552 216.549 212.92 198.702Z" fill="#AA658A"/>
<path d="M209.007 152.656C204.816 152.815 199.84 152.592 197.552 149.072C195.552 145.992 196.971 142.436 197.168 139.105C197.399 135.204 198.234 131.383 198.791 127.501C200.029 118.846 200.681 110.119 201.09 101.391C201.841 85.4291 201.78 69.4307 203.01 53.4908C203.928 41.6166 204.426 28.5339 211.336 18.2916C217.158 9.65883 227.027 4.54046 237.393 6.20574C245.149 7.45052 252.179 12.1567 256.76 18.5394C256.949 10.3773 264.14 3.24555 272.005 1.07622C279.872 -1.09031 288.257 0.363328 296.166 2.36278C309.31 5.68499 322.151 10.5221 333.697 17.6316C342.38 22.9783 350.646 30.0989 353.899 39.7648C357.572 50.6866 354.199 62.6137 350.431 73.502C347.351 82.3965 343.93 91.3328 338.267 98.8516C332.604 106.368 324.361 112.399 315.01 113.421C290.122 116.142 267.914 126.487 245.344 137.331C233.522 143.021 222.115 152.16 209.007 152.656Z" fill="#3B0E25"/>
<path d="M301.848 186.85C298.656 191.885 295.227 199.456 289.272 201.055C277.291 204.288 261.008 203.246 250.7 195.647C239.334 187.273 229.572 174.873 221.824 163.196C217.58 156.786 216.414 153.224 216.573 145.61C216.712 138.69 217.797 131.837 218.479 124.964C220.399 105.647 223.335 86.4262 227.902 67.5623C230.326 57.4898 235.655 45.7131 245.727 43.2792C247.035 42.9674 248.351 42.6722 249.662 42.4188C275.852 37.2224 303.927 42.6833 326.591 56.8298C328.434 65.7605 329.319 74.889 329.221 84.0007C329.14 92.9843 326.992 101.94 325.292 110.765C321.908 128.273 317.658 145.624 312.54 162.703C312.031 164.433 311.494 166.162 310.962 167.88C308.869 174.614 305.636 180.91 301.848 186.85Z" fill="#AA658A"/>
<path d="M296.897 176.852C299.346 170.119 298.124 162.168 293.763 156.485C288.701 149.882 280.185 147.29 272.128 148.064C263.927 148.852 256.274 154.004 252.45 161.305C251.454 163.207 253.266 164.666 254.663 166.293C256.06 167.919 257.908 169.089 259.722 170.23C261.28 171.211 262.864 172.205 264.639 172.695C266.412 173.185 268.433 173.11 269.947 172.063C272.337 170.406 272.718 167.014 274.53 164.736C275.582 163.413 277.182 162.486 278.872 162.453C280.561 162.419 282.281 163.38 282.96 164.925C284.404 168.223 280.884 171.921 281.699 175.427C282.295 177.983 285.114 179.509 287.735 179.512C290.357 179.515 294.531 177.986 296.897 176.852Z" fill="#AA658A"/>
<path d="M294.844 159.888C284.948 159.437 275.146 156.997 266.188 152.764C266.341 159.59 271.116 166.571 277.743 168.209C284.369 169.846 291.527 165.856 294.844 159.888Z" fill="white"/>
<path d="M289.421 139.426C289.552 139.462 289.689 139.476 289.831 139.465C293.718 139.203 297.542 138.384 301.196 137.031C302.59 136.515 304.271 135.702 304.9 134.006C305.782 131.625 304.015 129.437 302.958 128.128C298.811 122.998 295.881 116.875 294.489 110.425C294.342 109.746 293.674 109.314 292.995 109.462C292.316 109.609 291.884 110.278 292.032 110.957C293.507 117.791 296.61 124.274 301.004 129.71C301.934 130.862 302.899 132.171 302.543 133.132C302.27 133.87 301.213 134.343 300.322 134.672C296.896 135.942 293.309 136.71 289.661 136.955C288.968 137.003 288.445 137.602 288.492 138.295C288.531 138.846 288.918 139.289 289.421 139.426Z" fill="#8C496C"/>
<path d="M279.837 88.0189C279.631 91.472 273.851 87.6875 265.83 87.2085C257.81 86.7268 250.588 89.7315 250.794 86.2812C251 82.8281 257.874 77.0024 265.894 77.4814C273.912 77.9576 280.043 84.5658 279.837 88.0189Z" fill="#3B0E25"/>
<path d="M329.138 92.7754C328.932 96.2285 323.151 92.444 315.131 91.965C307.11 91.4833 299.886 94.488 300.095 91.0377C300.301 87.5846 307.174 81.7589 315.195 82.2379C323.215 82.7169 329.346 89.3223 329.138 92.7754Z" fill="#3B0E25"/>
<path d="M272.423 107.765C272.172 111.127 270.13 113.711 267.862 113.541C265.593 113.371 263.96 110.508 264.21 107.15C264.461 103.789 266.503 101.205 268.772 101.374C271.037 101.542 272.673 104.404 272.423 107.765Z" fill="#3B0E25"/>
<path d="M313.502 112.149C313.753 108.789 312.118 105.927 309.849 105.757C307.581 105.588 305.538 108.174 305.287 111.534C305.036 114.894 306.671 117.756 308.939 117.926C311.208 118.096 313.25 115.509 313.502 112.149Z" fill="#3B0E25"/>
<path d="M220.75 120.98C229.071 118.358 233.202 107.924 229.978 97.6748C226.753 87.4254 217.393 81.2418 209.072 83.8632C200.751 86.4847 196.62 96.9186 199.845 107.168C203.07 117.417 212.43 123.601 220.75 120.98Z" fill="#AA658A"/>
<path d="M272.888 393.061L184.894 582.254L358.82 583.256L448.228 393.061H272.888Z" fill="#ABD661"/>
<path d="M447.591 390.699H272.248C271.33 390.699 270.498 391.231 270.111 392.064L181.663 582.235L186.851 582.265L273.754 395.42H447.591C448.894 395.42 449.948 394.364 449.948 393.061C449.948 391.758 448.894 390.699 447.591 390.699Z" fill="#407053"/>
<path d="M392.084 512.008C393.253 513.794 394.483 515.988 395.546 518.594C397.572 523.56 398.207 528.077 398.376 531.332C397.057 526.62 396.437 525.295 396.144 525.35C395.977 525.381 396.033 525.826 395.772 525.974C395.282 526.25 393.464 524.337 391.806 521.758C391.16 520.75 390.323 519.307 389.529 517.447C390.381 515.631 391.233 513.821 392.084 512.008Z" fill="#FFA383"/>
<path d="M388.944 519.502L359.931 513.337C356.286 512.563 352.554 514.217 350.678 517.441C348.042 521.972 350.018 527.79 354.869 529.775L380.007 540.073C384.922 542.087 390.663 541.46 394.724 538.032C397.226 535.918 399.04 532.869 398.189 528.567C397.281 523.975 393.521 520.474 388.944 519.502Z" fill="#FFA383"/>
<path d="M382.28 537.882L347.841 528.862C343.514 527.729 339.284 529.204 337.358 532.518C334.647 537.18 337.436 543.602 343.271 546.139L373.519 559.285C379.433 561.856 386.098 561.652 390.565 558.3C393.32 556.23 395.19 553.098 393.841 548.397C392.399 543.379 387.713 539.305 382.28 537.882Z" fill="#FFA383"/>
<path d="M378.693 553.382L345.548 540.383C341.382 538.748 337.01 539.717 334.708 542.786C331.472 547.097 333.486 553.802 338.986 557.005L367.483 573.61C373.054 576.857 379.697 577.439 384.526 574.629C387.504 572.897 389.727 570.007 388.94 565.181C388.096 560.029 383.922 555.431 378.693 553.382Z" fill="#FFA383"/>
<path d="M364.157 568.163L338.571 562.794C335.354 562.12 332.306 563.354 331.012 565.858C329.192 569.375 331.472 573.983 335.841 575.632L358.502 584.181C362.933 585.852 367.814 585.462 370.97 582.842C372.915 581.224 374.173 578.86 373.015 575.459C371.78 571.831 368.193 569.01 364.157 568.163Z" fill="#FFA383"/>
<path d="M361.085 528.904C361.216 528.926 361.344 528.979 361.472 529.04C376.45 535.963 372.356 534.504 386.432 538.673C387.12 538.876 387.512 539.6 387.309 540.288C387.106 540.976 386.368 541.36 385.695 541.165C371.488 536.96 375.426 538.327 360.239 531.329C359.588 531.028 359.371 530.201 359.71 529.569C359.986 529.06 360.548 528.806 361.085 528.904Z" fill="#CC704F"/>
<path d="M356.327 546.239C356.458 546.261 356.586 546.314 356.714 546.375C371.692 553.298 367.598 551.839 381.674 556.008C382.361 556.211 382.754 556.935 382.551 557.623C382.348 558.311 381.61 558.695 380.937 558.5C366.73 554.295 370.667 555.662 355.481 548.664C354.83 548.364 354.613 547.537 354.952 546.904C355.228 546.395 355.79 546.144 356.327 546.239Z" fill="#CC704F"/>
<path d="M348.685 560.168C348.813 560.21 348.93 560.28 349.05 560.355C362.934 569.274 359.077 567.267 372.449 573.332C373.103 573.63 373.392 574.398 373.097 575.053C372.799 575.707 372.017 575.986 371.377 575.702C357.886 569.581 361.595 571.477 347.516 562.455C346.912 562.068 346.812 561.218 347.235 560.639C347.575 560.171 348.165 559.998 348.685 560.168Z" fill="#CC704F"/>
</svg>
