<svg width="79" height="54" viewBox="0 0 79 54" fill="none" xmlns="http://www.w3.org/2000/svg">
<path d="M49.5532 7.27661H65.6383V23.0745L76.3617 28.3404V44.1383H66.867" stroke="white" stroke-width="4" stroke-linecap="round" stroke-linejoin="round"/>
<path d="M21.0691 51.9574C16.4423 51.9574 12.6915 48.4566 12.6915 44.1382C12.6915 39.8198 16.4423 36.3191 21.0691 36.3191C25.696 36.3191 29.4468 39.8198 29.4468 44.1382C29.4468 48.4566 25.696 51.9574 21.0691 51.9574Z" stroke="white" stroke-width="4" stroke-linecap="round" stroke-linejoin="round"/>
<path d="M57.9308 51.9574C53.304 51.9574 49.5532 48.4566 49.5532 44.1382C49.5532 39.8198 53.304 36.3191 57.9308 36.3191C62.5577 36.3191 66.3085 39.8198 66.3085 44.1382C66.3085 48.4566 62.5577 51.9574 57.9308 51.9574Z" stroke="white" stroke-width="4" stroke-linecap="round" stroke-linejoin="round"/>
<path d="M29.4468 44.1383H49.5532V2.80847H2.6383V44.1383H12.133" stroke="white" stroke-width="4" stroke-linecap="round" stroke-linejoin="round"/>
<path d="M35.0319 12.8617L40.617 17.8883L35.0319 22.9149" stroke="white" stroke-width="4" stroke-linecap="round" stroke-linejoin="round"/>
<path d="M39.5 18.4468H20.734C18.601 18.4468 16.5554 19.2706 15.0471 20.737C13.5388 22.2033 12.6915 24.1922 12.6915 26.2659" stroke="white" stroke-width="4" stroke-linecap="round" stroke-linejoin="round"/>
</svg>
